<svg width="26" height="26" viewBox="0 0 26 26" fill="none" xmlns="http://www.w3.org/2000/svg">
<path d="M3.40003 24.7809C4.12312 25 5.09979 25 6.76 25H19.24C20.9002 25 21.8769 25 22.6 24.7809M3.40003 24.7809C3.24499 24.7339 3.1016 24.6769 2.96563 24.6076C2.28825 24.2625 1.73752 23.7117 1.39238 23.0344C1 22.2643 1 21.2562 1 19.24V6.76C1 4.74381 1 3.73572 1.39238 2.96563C1.73752 2.28825 2.28825 1.73752 2.96563 1.39238C3.73572 1 4.74381 1 6.76 1H19.24C21.2562 1 22.2643 1 23.0344 1.39238C23.7117 1.73752 24.2625 2.28825 24.6076 2.96563C25 3.73572 25 4.74381 25 6.76V19.24C25 21.2562 25 22.2643 24.6076 23.0344C24.2625 23.7117 23.7117 24.2625 23.0344 24.6076C22.8984 24.6769 22.755 24.7339 22.6 24.7809M3.40003 24.7809C3.40042 23.8097 3.40625 23.2958 3.49223 22.8636C3.87098 20.9595 5.35945 19.471 7.26357 19.0922C7.72724 19 8.28483 19 9.4 19H16.6C17.7152 19 18.2728 19 18.7364 19.0922C20.6405 19.471 22.129 20.9595 22.5078 22.8636C22.5938 23.2958 22.5996 23.8097 22.6 24.7809M17.8 10C17.8 12.651 15.651 14.8 13 14.8C10.349 14.8 8.2 12.651 8.2 10C8.2 7.34903 10.349 5.2 13 5.2C15.651 5.2 17.8 7.34903 17.8 10Z" stroke="#AFB8C1" stroke-width="2" stroke-linecap="round" stroke-linejoin="round"/>
</svg>
