<svg width="28" height="29" viewBox="0 0 28 29" fill="none" xmlns="http://www.w3.org/2000/svg">
<path d="M8.22222 19V22M14 13V22M19.7778 7V22M7.93333 28H20.0667C22.4936 28 23.707 28 24.634 27.5095C25.4493 27.0781 26.1122 26.3897 26.5277 25.543C27 24.5804 27 23.3202 27 20.8V8.2C27 5.67976 27 4.41965 26.5277 3.45704C26.1122 2.61031 25.4493 1.9219 24.634 1.49047C23.707 1 22.4936 1 20.0667 1H7.93333C5.50644 1 4.29299 1 3.36604 1.49047C2.55067 1.9219 1.88776 2.61031 1.47231 3.45704C1 4.41965 1 5.67976 1 8.2V20.8C1 23.3202 1 24.5804 1.47231 25.543C1.88776 26.3897 2.55067 27.0781 3.36604 27.5095C4.29299 28 5.50644 28 7.93333 28Z" stroke="#AFB8C1" stroke-width="2" stroke-linecap="round" stroke-linejoin="round"/>
</svg>
