<svg width="27" height="32" viewBox="0 0 27 32" fill="none" xmlns="http://www.w3.org/2000/svg">
<path d="M15.7059 14.5H6.88235M9.82353 20.5H6.88235M18.6471 8.5H6.88235M24.5294 16V8.2C24.5294 5.67976 24.5294 4.41965 24.0486 3.45704C23.6256 2.61031 22.9507 1.9219 22.1205 1.49047C21.1768 1 19.9414 1 17.4706 1H8.05882C5.588 1 4.35259 1 3.40887 1.49047C2.57874 1.9219 1.90382 2.61031 1.48085 3.45704C1 4.41965 1 5.67976 1 8.2V23.8C1 26.3202 1 27.5804 1.48085 28.543C1.90382 29.3897 2.57874 30.0781 3.40887 30.5095C4.35259 31 5.588 31 8.05882 31H12.7647M18.6471 22L26 29.5M26 22L18.6471 29.5" stroke="#AFB8C1" stroke-width="2" stroke-linecap="round" stroke-linejoin="round"/>
</svg>
