<svg width="21" height="21" viewBox="0 0 21 21" fill="none" xmlns="http://www.w3.org/2000/svg">
<path d="M9.15611 2.92241H5.34993C3.82731 2.92241 3.066 2.92241 2.48444 3.21874C1.97288 3.47939 1.55697 3.8953 1.29632 4.40685C1 4.98842 1 5.74972 1 7.27234V14.8847C1 16.4073 1 17.1686 1.29632 17.7502C1.55697 18.2618 1.97288 18.6777 2.48444 18.9383C3.066 19.2346 3.82731 19.2346 5.34993 19.2346H12.9623C14.4849 19.2346 15.2462 19.2346 15.8278 18.9383C16.3393 18.6777 16.7552 18.2618 17.0159 17.7502C17.3122 17.1686 17.3122 16.4073 17.3122 14.8847V11.0785M6.43738 13.7972H7.95491C8.39823 13.7972 8.61988 13.7972 8.82847 13.7472C9.01341 13.7028 9.19021 13.6295 9.35237 13.5301C9.53528 13.4181 9.69202 13.2613 10.0055 12.9479L18.6716 4.28177C19.4223 3.53102 19.4223 2.31381 18.6716 1.56306C17.9208 0.812313 16.7036 0.812312 15.9529 1.56306L7.28676 10.2291C6.97329 10.5426 6.81656 10.6994 6.70447 10.8823C6.60509 11.0444 6.53186 11.2212 6.48746 11.4062C6.43738 11.6148 6.43738 11.8364 6.43738 12.2797V13.7972Z" stroke="#6E7781" stroke-width="1.88495" stroke-linecap="round" stroke-linejoin="round"/>
</svg>
