<svg width="24" height="24" viewBox="0 0 24 24" fill="none" xmlns="http://www.w3.org/2000/svg">
<path d="M21.8104 14.2789V16.7784C21.8104 18.6872 21.8104 19.6417 21.439 20.3708C21.1122 21.0121 20.5908 21.5335 19.9494 21.8603C19.2203 22.2318 18.2659 22.2318 16.357 22.2318H13.8575M9.31302 1.78143H6.81353C4.90465 1.78143 3.95022 1.78143 3.22112 2.15293C2.57979 2.4797 2.05837 3.00112 1.7316 3.64245C1.36011 4.37154 1.36011 5.32598 1.36011 7.23486V9.73434M14.9937 8.59821L21.8104 1.78143M21.8104 1.78143H14.9937M21.8104 1.78143V8.59821M8.17689 15.415L1.36011 22.2318M1.36011 22.2318H8.17689M1.36011 22.2318L1.36011 15.415" stroke="#24292F" stroke-width="2.55629" stroke-linecap="round" stroke-linejoin="round"/>
</svg>
