<svg width="25" height="31" viewBox="0 0 25 31" fill="none" xmlns="http://www.w3.org/2000/svg">
<path d="M15.375 14.05H6.75M9.625 19.85H6.75M18.25 8.25H6.75M24 7.96V23.04C24 25.4762 24 26.6943 23.53 27.6249C23.1165 28.4434 22.4568 29.1088 21.6453 29.5259C20.7228 30 19.5152 30 17.1 30H7.9C5.48477 30 4.27716 30 3.35467 29.5259C2.54322 29.1088 1.88349 28.4434 1.47003 27.6249C1 26.6943 1 25.4762 1 23.04V7.96C1 5.52377 1 4.30566 1.47003 3.37514C1.88349 2.55664 2.54322 1.89117 3.35467 1.47412C4.27716 1 5.48477 1 7.9 1H17.1C19.5152 1 20.7228 1 21.6453 1.47412C22.4568 1.89117 23.1165 2.55664 23.53 3.37514C24 4.30566 24 5.52377 24 7.96Z" stroke="black" stroke-width="1.5" stroke-linecap="round" stroke-linejoin="round"/>
</svg>
