<svg width="19" height="20" viewBox="0 0 19 20" fill="none" xmlns="http://www.w3.org/2000/svg">
<path d="M9.82465 6.37632V13.6597M6.18296 10.018H13.4663M6.00088 18.2118H13.6484C15.1781 18.2118 15.9429 18.2118 16.5271 17.9141C17.0411 17.6522 17.4589 17.2344 17.7207 16.7205C18.0184 16.1362 18.0184 15.3714 18.0184 13.8418V6.19424C18.0184 4.66459 18.0184 3.89976 17.7207 3.31551C17.4589 2.80159 17.0411 2.38376 16.5271 2.12191C15.9429 1.82422 15.1781 1.82422 13.6484 1.82422H6.00088C4.47123 1.82422 3.7064 1.82422 3.12215 2.12191C2.60823 2.38376 2.1904 2.80159 1.92855 3.31551C1.63086 3.89976 1.63086 4.66459 1.63086 6.19424V13.8418C1.63086 15.3714 1.63086 16.1362 1.92855 16.7205C2.1904 17.2344 2.60823 17.6522 3.12215 17.9141C3.7064 18.2118 4.47123 18.2118 6.00088 18.2118Z" stroke="#424A53" stroke-width="1.82084" stroke-linecap="round" stroke-linejoin="round"/>
</svg>
