<svg width="22" height="23" viewBox="0 0 22 23" fill="none" xmlns="http://www.w3.org/2000/svg">
<path d="M1.00002 8.47938L1.00003 1.80653M1.00003 1.80653H7.66669M1.00003 1.80653L11 11.8158M13.2222 1.80652H15.6667C17.5335 1.80652 18.4669 1.80652 19.18 2.17017C19.8072 2.49004 20.3171 3.00045 20.6367 3.62824C21 4.34194 21 5.27623 21 7.1448V16.4868C21 18.3554 21 19.2897 20.6367 20.0034C20.3171 20.6311 19.8072 21.1415 19.18 21.4614C18.4669 21.8251 17.5335 21.8251 15.6667 21.8251H6.33333C4.46649 21.8251 3.53307 21.8251 2.82003 21.4614C2.19282 21.1415 1.68289 20.6311 1.36331 20.0034C1 19.2897 1 18.3554 1 16.4868V14.0401" stroke="#2E1461" stroke-width="2" stroke-linecap="round" stroke-linejoin="round"/>
</svg>
