<svg xmlns="http://www.w3.org/2000/svg" xmlns:xlink="http://www.w3.org/1999/xlink" viewBox="0 0 230 230" width="230" height="230" preserveAspectRatio="xMidYMid meet" style="width: 100%; height: 100%; transform: translate3d(0px, 0px, 0px); content-visibility: visible;"><defs><clipPath id="__lottie_element_727"><rect width="230" height="230" x="0" y="0"></rect></clipPath><g id="__lottie_element_743"><g transform="matrix(1,0,0,1,114.5999984741211,135.9250030517578)" opacity="1" style="display: block;"><g opacity="1" transform="matrix(2,0,0,2,0,0)"><path fill="rgb(209,221,235)" fill-opacity="1" d=" M28.799999237060547,38.400001525878906 C28.799999237060547,38.400001525878906 28.799999237060547,-38.400001525878906 28.799999237060547,-38.400001525878906 C28.799999237060547,-38.400001525878906 -28.799999237060547,-38.400001525878906 -28.799999237060547,-38.400001525878906 C-28.799999237060547,-38.400001525878906 -28.799999237060547,38.400001525878906 -28.799999237060547,38.400001525878906 C-28.799999237060547,38.400001525878906 -19.100000381469727,29 -19.100000381469727,29 C-19.100000381469727,29 -9.699999809265137,38.400001525878906 -9.699999809265137,38.400001525878906 C-9.699999809265137,38.400001525878906 0,29 0,29 C0,29 9.5,38.400001525878906 9.5,38.400001525878906 C9.5,38.400001525878906 19.299999237060547,29 19.299999237060547,29 C19.299999237060547,29 28.799999237060547,38.400001525878906 28.799999237060547,38.400001525878906z"></path><path stroke-linecap="round" stroke-linejoin="round" fill-opacity="0" stroke="rgb(209,221,235)" stroke-opacity="1" stroke-width="4" d=" M28.799999237060547,38.400001525878906 C28.799999237060547,38.400001525878906 28.799999237060547,-38.400001525878906 28.799999237060547,-38.400001525878906 C28.799999237060547,-38.400001525878906 -28.799999237060547,-38.400001525878906 -28.799999237060547,-38.400001525878906 C-28.799999237060547,-38.400001525878906 -28.799999237060547,38.400001525878906 -28.799999237060547,38.400001525878906 C-28.799999237060547,38.400001525878906 -19.100000381469727,29 -19.100000381469727,29 C-19.100000381469727,29 -9.699999809265137,38.400001525878906 -9.699999809265137,38.400001525878906 C-9.699999809265137,38.400001525878906 0,29 0,29 C0,29 9.5,38.400001525878906 9.5,38.400001525878906 C9.5,38.400001525878906 19.299999237060547,29 19.299999237060547,29 C19.299999237060547,29 28.799999237060547,38.400001525878906 28.799999237060547,38.400001525878906z"></path></g></g></g><mask id="__lottie_element_743_1" mask-type="alpha"><use xlink:href="#__lottie_element_743"></use></mask></defs><g clip-path="url(#__lottie_element_727)"><g transform="matrix(1,0,0,1,115,115.875)" opacity="1" style="display: block;"><g opacity="1" transform="matrix(1,0,0,1,0,0)"><path fill="rgb(108,173,255)" fill-opacity="1" d=" M65,-57.25 C65,-57.25 -64.75,-57.625 -64.75,-57.625 C-64.75,-57.625 -65,12.875 -65,12.875 C-65,12.875 65,12.875 65,12.875 C65,12.875 65,-57.25 65,-57.25z"></path><path stroke-linecap="butt" stroke-linejoin="miter" fill-opacity="0" stroke-miterlimit="4" stroke="rgb(166,192,223)" stroke-opacity="1" stroke-width="0" d=" M65,-57.25 C65,-57.25 -64.75,-57.625 -64.75,-57.625 C-64.75,-57.625 -65,12.875 -65,12.875 C-65,12.875 65,12.875 65,12.875 C65,12.875 65,-57.25 65,-57.25z"></path></g></g><g transform="matrix(1,0,0,1,115,72.05000305175781)" opacity="1" style="display: block;"><g opacity="1" transform="matrix(2,0,0,2,0,0)"><path fill="rgb(109,174,255)" fill-opacity="1" d=" M45.099998474121094,26.399999618530273 C45.099998474121094,26.399999618530273 28.799999237060547,26.399999618530273 28.799999237060547,26.399999618530273 C28.799999237060547,26.399999618530273 28.799999237060547,-7.199999809265137 28.799999237060547,-7.199999809265137 C28.799999237060547,-7.199999809265137 -28.799999237060547,-7.199999809265137 -28.799999237060547,-7.199999809265137 C-28.799999237060547,-7.199999809265137 -28.799999237060547,26.399999618530273 -28.799999237060547,26.399999618530273 C-28.799999237060547,26.399999618530273 -45.099998474121094,26.399999618530273 -45.099998474121094,26.399999618530273 C-46.70000076293945,26.399999618530273 -48,25.100000381469727 -48,23.5 C-48,23.5 -48,-23.5 -48,-23.5 C-48,-25.100000381469727 -46.70000076293945,-26.399999618530273 -45.099998474121094,-26.399999618530273 C-45.099998474121094,-26.399999618530273 45.099998474121094,-26.399999618530273 45.099998474121094,-26.399999618530273 C46.70000076293945,-26.399999618530273 48,-25.100000381469727 48,-23.5 C48,-23.5 48,23.5 48,23.5 C48,25.100000381469727 46.70000076293945,26.399999618530273 45.099998474121094,26.399999618530273z"></path><path stroke-linecap="round" stroke-linejoin="round" fill-opacity="0" stroke="rgb(109,174,255)" stroke-opacity="1" stroke-width="4" d=" M45.099998474121094,26.399999618530273 C45.099998474121094,26.399999618530273 28.799999237060547,26.399999618530273 28.799999237060547,26.399999618530273 C28.799999237060547,26.399999618530273 28.799999237060547,-7.199999809265137 28.799999237060547,-7.199999809265137 C28.799999237060547,-7.199999809265137 -28.799999237060547,-7.199999809265137 -28.799999237060547,-7.199999809265137 C-28.799999237060547,-7.199999809265137 -28.799999237060547,26.399999618530273 -28.799999237060547,26.399999618530273 C-28.799999237060547,26.399999618530273 -45.099998474121094,26.399999618530273 -45.099998474121094,26.399999618530273 C-46.70000076293945,26.399999618530273 -48,25.100000381469727 -48,23.5 C-48,23.5 -48,-23.5 -48,-23.5 C-48,-25.100000381469727 -46.70000076293945,-26.399999618530273 -45.099998474121094,-26.399999618530273 C-45.099998474121094,-26.399999618530273 45.099998474121094,-26.399999618530273 45.099998474121094,-26.399999618530273 C46.70000076293945,-26.399999618530273 48,-25.100000381469727 48,-23.5 C48,-23.5 48,23.5 48,23.5 C48,25.100000381469727 46.70000076293945,26.399999618530273 45.099998474121094,26.399999618530273z"></path></g></g><g transform="matrix(1,0,0,1,115.80000305175781,71.4000015258789)" opacity="1" style="display: block;"><g opacity="1" transform="matrix(2,0,0,2,0,0)"><path fill="rgb(61,130,215)" fill-opacity="1" d=" M31.200000762939453,7.199999809265137 C31.200000762939453,7.199999809265137 28.799999237060547,7.199999809265137 28.799999237060547,7.199999809265137 C28.799999237060547,7.199999809265137 28.799999237060547,-7.199999809265137 28.799999237060547,-7.199999809265137 C28.799999237060547,-7.199999809265137 -28.799999237060547,-7.199999809265137 -28.799999237060547,-7.199999809265137 C-28.799999237060547,-7.199999809265137 -28.799999237060547,7.199999809265137 -28.799999237060547,7.199999809265137 C-28.799999237060547,7.199999809265137 -31.200000762939453,7.199999809265137 -31.200000762939453,7.199999809265137 C-35.20000076293945,7.199999809265137 -38.400001525878906,4 -38.400001525878906,0 C-38.400001525878906,-4 -35.20000076293945,-7.199999809265137 -31.200000762939453,-7.199999809265137 C-31.200000762939453,-7.199999809265137 31.200000762939453,-7.199999809265137 31.200000762939453,-7.199999809265137 C35.20000076293945,-7.199999809265137 38.400001525878906,-4 38.400001525878906,0 C38.400001525878906,4 35.20000076293945,7.199999809265137 31.200000762939453,7.199999809265137z"></path><path stroke-linecap="round" stroke-linejoin="round" fill-opacity="0" stroke="rgb(61,130,215)" stroke-opacity="1" stroke-width="4" d=" M31.200000762939453,7.199999809265137 C31.200000762939453,7.199999809265137 28.799999237060547,7.199999809265137 28.799999237060547,7.199999809265137 C28.799999237060547,7.199999809265137 28.799999237060547,-7.199999809265137 28.799999237060547,-7.199999809265137 C28.799999237060547,-7.199999809265137 -28.799999237060547,-7.199999809265137 -28.799999237060547,-7.199999809265137 C-28.799999237060547,-7.199999809265137 -28.799999237060547,7.199999809265137 -28.799999237060547,7.199999809265137 C-28.799999237060547,7.199999809265137 -31.200000762939453,7.199999809265137 -31.200000762939453,7.199999809265137 C-35.20000076293945,7.199999809265137 -38.400001525878906,4 -38.400001525878906,0 C-38.400001525878906,-4 -35.20000076293945,-7.199999809265137 -31.200000762939453,-7.199999809265137 C-31.200000762939453,-7.199999809265137 31.200000762939453,-7.199999809265137 31.200000762939453,-7.199999809265137 C35.20000076293945,-7.199999809265137 38.400001525878906,-4 38.400001525878906,0 C38.400001525878906,4 35.20000076293945,7.199999809265137 31.200000762939453,7.199999809265137z"></path></g></g><g transform="matrix(1,0,0,1,115,115)" opacity="1" style="display: block;"><g opacity="1" transform="matrix(1,0,0,1,0,0)"><path fill="rgb(60,129,214)" fill-opacity="1" d=" M58.5,-56.375 C58.5,-56.375 -57.5,-56.375 -57.5,-56.375 C-57.5,-56.375 -57.625,-25.125 -57.625,-25.125 C-57.625,-25.125 58.5,-25.125 58.5,-25.125 C58.5,-25.125 58.5,-56.375 58.5,-56.375z"></path><path stroke-linecap="butt" stroke-linejoin="miter" fill-opacity="0" stroke-miterlimit="4" stroke="rgb(166,192,223)" stroke-opacity="1" stroke-width="0" d=" M58.5,-56.375 C58.5,-56.375 -57.5,-56.375 -57.5,-56.375 C-57.5,-56.375 -57.625,-25.125 -57.625,-25.125 C-57.625,-25.125 58.5,-25.125 58.5,-25.125 C58.5,-25.125 58.5,-56.375 58.5,-56.375z"></path></g></g><g mask="url(#__lottie_element_743_1)" style="display: block;"><g transform="matrix(1,0,0,1,114.5999984741211,69.28536224365234)" opacity="1"><g opacity="1" transform="matrix(2,0,0,2,0,0)"><path fill="rgb(209,221,235)" fill-opacity="1" d=" M28.799999237060547,38.400001525878906 C28.799999237060547,38.400001525878906 28.799999237060547,-38.400001525878906 28.799999237060547,-38.400001525878906 C28.799999237060547,-38.400001525878906 -28.799999237060547,-38.400001525878906 -28.799999237060547,-38.400001525878906 C-28.799999237060547,-38.400001525878906 -28.799999237060547,38.400001525878906 -28.799999237060547,38.400001525878906 C-28.799999237060547,38.400001525878906 -19.100000381469727,29 -19.100000381469727,29 C-19.100000381469727,29 -9.699999809265137,38.400001525878906 -9.699999809265137,38.400001525878906 C-9.699999809265137,38.400001525878906 0,29 0,29 C0,29 9.5,38.400001525878906 9.5,38.400001525878906 C9.5,38.400001525878906 19.299999237060547,29 19.299999237060547,29 C19.299999237060547,29 28.799999237060547,38.400001525878906 28.799999237060547,38.400001525878906z"></path><path stroke-linecap="round" stroke-linejoin="round" fill-opacity="0" stroke="rgb(209,221,235)" stroke-opacity="1" stroke-width="4" d=" M28.799999237060547,38.400001525878906 C28.799999237060547,38.400001525878906 28.799999237060547,-38.400001525878906 28.799999237060547,-38.400001525878906 C28.799999237060547,-38.400001525878906 -28.799999237060547,-38.400001525878906 -28.799999237060547,-38.400001525878906 C-28.799999237060547,-38.400001525878906 -28.799999237060547,38.400001525878906 -28.799999237060547,38.400001525878906 C-28.799999237060547,38.400001525878906 -19.100000381469727,29 -19.100000381469727,29 C-19.100000381469727,29 -9.699999809265137,38.400001525878906 -9.699999809265137,38.400001525878906 C-9.699999809265137,38.400001525878906 0,29 0,29 C0,29 9.5,38.400001525878906 9.5,38.400001525878906 C9.5,38.400001525878906 19.299999237060547,29 19.299999237060547,29 C19.299999237060547,29 28.799999237060547,38.400001525878906 28.799999237060547,38.400001525878906z"></path></g></g></g><g transform="matrix(1,0,0,1,102.9000015258789,87.125)" opacity="1" style="display: none;"><g opacity="1" transform="matrix(2,0,0,2,0,0)"><path stroke-linecap="round" stroke-linejoin="round" fill-opacity="0" stroke="rgb(164,184,206)" stroke-opacity="1" stroke-width="4" d=" M12.949999809265137,0 C12.949999809265137,0 -12.949999809265137,0 -12.949999809265137,0"></path></g></g><g transform="matrix(1,0,0,1,98.0999984741211,107.125)" opacity="1" style="display: none;"><g opacity="1" transform="matrix(2,0,0,2,0,0)"><path stroke-linecap="round" stroke-linejoin="round" fill-opacity="0" stroke="rgb(164,184,206)" stroke-opacity="1" stroke-width="4" d=" M10.550000190734863,0 C10.550000190734863,0 -10.550000190734863,0 -10.550000190734863,0"></path></g></g><g transform="matrix(1,0,0,1,102.9000015258789,125.125)" opacity="1" style="display: none;"><g opacity="1" transform="matrix(2,0,0,2,0,0)"><path stroke-linecap="round" stroke-linejoin="round" fill-opacity="0" stroke="rgb(164,184,206)" stroke-opacity="1" stroke-width="4" d=" M12.949999809265137,0 C12.949999809265137,0 -12.949999809265137,0 -12.949999809265137,0"></path></g></g><g transform="matrix(1,0,0,1,98.0999984741211,78.48535919189453)" opacity="1" style="display: block;"><g opacity="1" transform="matrix(2,0,0,2,0,0)"><path stroke-linecap="round" stroke-linejoin="round" fill-opacity="0" stroke="rgb(164,184,206)" stroke-opacity="1" stroke-width="4" d=" M-10.23799991607666,0 C-10.440999984741211,0 -10.550000190734863,0 -10.550000190734863,0"></path></g></g></g></svg>