<svg width="66" height="66" viewBox="0 0 66 66" fill="none" xmlns="http://www.w3.org/2000/svg">
<rect width="66" height="66" rx="8" fill="url(#paint0_linear_1541_78740)"/>
<path d="M18.8147 16.1945C24.6586 11.5482 31.6631 10.1192 38.9278 11.5069C38.9884 11.5179 39.0035 11.5496 38.9733 11.6019C38.9567 11.6377 38.9264 11.6515 38.8824 11.6432C31.3203 10.4662 25.212 12.2875 18.8683 16.3019C18.8325 16.3266 18.8353 16.3335 18.8766 16.3225C19.1685 16.2427 19.1506 16.2069 18.8229 16.2151C18.7981 16.2151 18.7954 16.2082 18.8147 16.1945Z" fill="white"/>
<path d="M47.3405 16.0377C47.3451 16.0411 47.3491 16.0455 47.3522 16.0506C47.3553 16.0556 47.3575 16.0613 47.3586 16.0672C47.3598 16.0731 47.3599 16.0791 47.3589 16.0849C47.3579 16.0908 47.3558 16.0963 47.3529 16.1012C47.3499 16.106 47.346 16.1102 47.3415 16.1134C47.337 16.1166 47.3319 16.1187 47.3265 16.1197C47.3212 16.1207 47.3156 16.1206 47.3102 16.1193C47.3048 16.1179 47.2997 16.1155 47.2951 16.112C43.9002 14.4931 41.2983 13.8488 37.4532 13.9149C28.4374 14.0759 16.704 17.9705 12.1156 26.5321C12.109 26.5474 12.0966 26.5595 12.0811 26.5657C12.0657 26.5719 12.0483 26.5717 12.033 26.5651C12.0177 26.5585 12.0056 26.5461 11.9994 26.5306C11.9932 26.5151 11.9934 26.4978 12 26.4825C13.1688 22.8109 15.2751 20.3288 18.5543 18.1027C26.0585 13.0145 39.5595 9.5453 47.3405 16.0377Z" fill="white"/>
<path d="M37.5153 16.8182C43.859 16.4258 51.2806 17.7639 53.833 24.8098C53.8351 24.8206 53.8336 24.8318 53.8286 24.8416C53.8237 24.8515 53.8156 24.8594 53.8056 24.8641C53.7957 24.8689 53.7845 24.8701 53.7737 24.8678C53.7629 24.8654 53.7533 24.8595 53.7462 24.8511C48.34 15.604 30.9733 19.5192 23.275 23.2073C18.4429 25.5242 13.1606 29.2 11.682 34.4781C11.5471 34.9627 11.4108 35.4473 11.2732 35.9319C11.2263 36.0943 11.1864 36.093 11.1534 35.9278C10.2654 31.265 13.3712 26.9243 16.8982 24.2976C22.9556 19.7877 29.8279 17.2945 37.5153 16.8182Z" fill="white"/>
<path d="M39.3737 23.579C45.5192 23.166 56.6537 24.9088 55.3321 33.8132C55.3293 33.8407 55.3238 33.8407 55.3156 33.8132C52.565 23.5253 35.5617 26.437 28.8215 28.9026C23.2377 30.9469 10.4677 38.6081 15.3659 46.4593C15.3687 46.4635 15.3706 46.4682 15.3712 46.4732C15.3719 46.4782 15.3714 46.4833 15.3698 46.4881C15.3682 46.4929 15.3656 46.4972 15.362 46.5008C15.3585 46.5044 15.3542 46.5072 15.3494 46.5088C15.3136 46.5226 15.2778 46.535 15.242 46.546C15.2145 46.5543 15.1925 46.5432 15.176 46.513C14.0939 44.6572 13.4441 43.4746 13.2266 42.9653C12.1941 40.5533 13.2183 37.4847 14.8084 35.1595C19.7438 27.9485 30.9444 24.1407 39.3737 23.579Z" fill="white"/>
<path d="M22.0814 52.3239C22.1612 52.3515 22.2136 52.3983 22.2383 52.4644C22.2515 52.4954 22.2537 52.53 22.2446 52.5625C22.2355 52.5949 22.2156 52.6233 22.1882 52.643C22.1609 52.6627 22.1276 52.6725 22.0939 52.6708C22.0603 52.6691 22.0282 52.656 22.0029 52.6337C20.9828 51.8035 19.6819 50.9982 18.9054 50.1515C16.1383 47.1366 17.3649 43.1759 19.9049 40.3882C25.7654 33.966 35.3677 30.98 43.9416 31.3476C50.2481 31.6202 57.3517 35.6758 53.135 42.9984C52.967 43.2902 52.9106 43.2709 52.9656 42.9405C53.0317 42.5234 53.263 42.0608 53.2671 41.6644C53.2837 36.5968 48.0964 34.7507 43.8714 34.5525C36.6163 34.2111 30.1033 36.1756 24.3323 40.446C20.8796 42.9984 17.146 48.7143 21.8997 52.2413C21.9327 52.2689 21.9933 52.2964 22.0814 52.3239Z" fill="white"/>
<path d="M30.8906 45.2492C24.6585 49.1149 25.5423 55.2645 33.3687 55.2274C33.3824 55.2274 33.3907 55.2329 33.3934 55.2439C33.4127 55.2934 33.4182 55.3292 33.41 55.3513C33.4072 55.3623 33.3948 55.3692 33.3728 55.3719C29.2056 55.8056 21.3792 53.6456 24.4313 47.5827C27.7807 40.9334 44.4041 35.6428 49.7442 41.97C53.1679 46.0216 47.3364 50.9198 43.8217 52.8856C43.7639 52.9159 43.7364 52.9022 43.7391 52.8443C43.7391 52.8278 43.7433 52.8113 43.7515 52.7948C43.7598 52.781 43.7722 52.7686 43.7887 52.7576C45.515 51.5682 47.0597 50.61 48.0591 48.6895C50.1035 44.7578 46.4278 42.5606 43.0866 42.2963C38.684 41.9521 34.6187 42.9364 30.8906 45.2492Z" fill="white"/>
<path d="M44.7263 48.5292C44.9966 49.4658 44.5627 50.5642 43.5201 51.5826C42.4774 52.601 40.9114 53.4561 39.1666 53.9597C37.4217 54.4633 35.641 54.5742 34.216 54.2681C32.791 53.9619 31.8386 53.2637 31.5683 52.3271C31.2979 51.3905 31.7318 50.2921 32.7744 49.2737C33.8171 48.2553 35.3831 47.4003 37.1279 46.8966C38.8728 46.393 40.6536 46.2821 42.0785 46.5882C43.5035 46.8944 44.4559 47.5926 44.7263 48.5292ZM41.8767 50.0219C41.8058 49.776 41.6439 49.5588 41.4005 49.383C41.157 49.2071 40.8367 49.0758 40.4578 48.9968C40.0789 48.9177 39.6489 48.8924 39.1923 48.9222C38.7357 48.952 38.2615 49.0365 37.7967 49.1706C36.8579 49.4416 36.0146 49.8987 35.4522 50.4416C34.8898 50.9844 34.6544 51.5684 34.7977 52.0651C34.8687 52.3111 35.0306 52.5282 35.274 52.7041C35.5175 52.88 35.8378 53.0112 36.2167 53.0903C36.5955 53.1693 37.0256 53.1947 37.4822 53.1648C37.9388 53.135 38.413 53.0506 38.8778 52.9165C39.8165 52.6455 40.6599 52.1883 41.2223 51.6455C41.7847 51.1027 42.0201 50.5187 41.8767 50.0219Z" fill="white"/>
<defs>
<linearGradient id="paint0_linear_1541_78740" x1="-8.1573" y1="68.5955" x2="69.3371" y2="-2.0142e-07" gradientUnits="userSpaceOnUse">
<stop stop-color="#396AFC"/>
<stop offset="1" stop-color="#001AB6"/>
</linearGradient>
</defs>
</svg>
