<svg width="66" height="66" viewBox="0 0 66 66" fill="none" xmlns="http://www.w3.org/2000/svg">
<rect width="66" height="66" rx="8" fill="#6D20FE"/>
<path d="M18.8147 16.1945C24.6586 11.5482 31.6631 10.1192 38.9278 11.5069C38.9884 11.5179 39.0035 11.5496 38.9733 11.6019C38.9567 11.6377 38.9264 11.6515 38.8824 11.6432C31.3203 10.4662 25.212 12.2875 18.8683 16.3019C18.8325 16.3266 18.8353 16.3335 18.8766 16.3225C19.1685 16.2427 19.1506 16.2069 18.8229 16.2151C18.7981 16.2151 18.7954 16.2082 18.8147 16.1945Z" fill="white"/>
<path d="M47.3405 16.0375C47.3451 16.041 47.3491 16.0454 47.3522 16.0504C47.3553 16.0555 47.3575 16.0611 47.3586 16.067C47.3598 16.0729 47.3599 16.079 47.3589 16.0848C47.3579 16.0906 47.3558 16.0961 47.3529 16.101C47.3499 16.1059 47.346 16.11 47.3415 16.1132C47.337 16.1164 47.3319 16.1186 47.3265 16.1196C47.3212 16.1206 47.3156 16.1204 47.3102 16.1191C47.3048 16.1178 47.2997 16.1153 47.2951 16.1119C43.9002 14.4929 41.2983 13.8486 37.4532 13.9147C28.4374 14.0758 16.704 17.9704 12.1156 26.5319C12.109 26.5472 12.0966 26.5593 12.0811 26.5655C12.0657 26.5717 12.0483 26.5715 12.033 26.5649C12.0177 26.5584 12.0056 26.546 11.9994 26.5305C11.9932 26.515 11.9934 26.4977 12 26.4823C13.1688 22.8108 15.2751 20.3286 18.5543 18.1025C26.0585 13.0144 39.5595 9.54515 47.3405 16.0375Z" fill="white"/>
<path d="M37.5153 16.8181C43.859 16.4258 51.2806 17.7639 53.833 24.8097C53.8351 24.8205 53.8336 24.8317 53.8286 24.8416C53.8237 24.8514 53.8156 24.8593 53.8056 24.8641C53.7957 24.8688 53.7845 24.8701 53.7737 24.8677C53.7629 24.8654 53.7533 24.8595 53.7462 24.851C48.34 15.6039 30.9733 19.5191 23.275 23.2072C18.4429 25.5242 13.1606 29.1999 11.682 34.4781C11.5471 34.9626 11.4108 35.4472 11.2732 35.9318C11.2263 36.0943 11.1864 36.0929 11.1534 35.9277C10.2654 31.2649 13.3712 26.9243 16.8982 24.2976C22.9556 19.7876 29.8279 17.2944 37.5153 16.8181Z" fill="white"/>
<path d="M39.3737 23.5789C45.5192 23.1659 56.6537 24.9088 55.3321 33.8131C55.3293 33.8406 55.3238 33.8406 55.3156 33.8131C52.565 23.5252 35.5617 26.4369 28.8215 28.9025C23.2377 30.9469 10.4677 38.6081 15.3659 46.4592C15.3687 46.4634 15.3706 46.4682 15.3712 46.4732C15.3719 46.4782 15.3714 46.4833 15.3698 46.4881C15.3682 46.4928 15.3656 46.4972 15.362 46.5008C15.3585 46.5044 15.3542 46.5071 15.3494 46.5088C15.3136 46.5225 15.2778 46.5349 15.242 46.5459C15.2145 46.5542 15.1925 46.5432 15.176 46.5129C14.0939 44.6572 13.4441 43.4746 13.2266 42.9652C12.1941 40.5533 13.2183 37.4847 14.8084 35.1595C19.7438 27.9485 30.9444 24.1406 39.3737 23.5789Z" fill="white"/>
<path d="M22.0814 52.3239C22.1612 52.3514 22.2136 52.3982 22.2383 52.4643C22.2515 52.4953 22.2537 52.5299 22.2446 52.5624C22.2355 52.5949 22.2156 52.6233 22.1882 52.6429C22.1609 52.6626 22.1276 52.6724 22.0939 52.6707C22.0603 52.669 22.0282 52.656 22.0029 52.6336C20.9828 51.8035 19.6819 50.9981 18.9054 50.1515C16.1383 47.1366 17.3649 43.1759 19.9049 40.3881C25.7654 33.966 35.3677 30.98 43.9416 31.3475C50.2481 31.6201 57.3517 35.6758 53.135 42.9983C52.967 43.2902 52.9106 43.2709 52.9656 42.9405C53.0317 42.5233 53.263 42.0608 53.2671 41.6643C53.2837 36.5968 48.0964 34.7507 43.8714 34.5524C36.6163 34.211 30.1033 36.1755 24.3323 40.446C20.8796 42.9983 17.146 48.7142 21.8997 52.2413C21.9327 52.2688 21.9933 52.2963 22.0814 52.3239Z" fill="white"/>
<path d="M30.8906 45.2492C24.6585 49.1148 25.5423 55.2644 33.3687 55.2273C33.3824 55.2273 33.3907 55.2328 33.3934 55.2438C33.4127 55.2933 33.4182 55.3291 33.41 55.3512C33.4072 55.3622 33.3948 55.3691 33.3728 55.3718C29.2056 55.8055 21.3792 53.6455 24.4313 47.5826C27.7807 40.9333 44.4041 35.6427 49.7442 41.9699C53.1679 46.0215 47.3364 50.9197 43.8217 52.8855C43.7639 52.9158 43.7364 52.9021 43.7391 52.8442C43.7391 52.8277 43.7433 52.8112 43.7515 52.7947C43.7598 52.7809 43.7722 52.7685 43.7887 52.7575C45.515 51.5681 47.0597 50.6099 48.0591 48.6895C50.1035 44.7577 46.4278 42.5605 43.0866 42.2962C38.684 41.952 34.6187 42.9363 30.8906 45.2492Z" fill="white"/>
<path d="M44.7263 48.5292C44.9966 49.4658 44.5627 50.5642 43.5201 51.5826C42.4774 52.601 40.9114 53.4561 39.1666 53.9597C37.4217 54.4633 35.641 54.5742 34.216 54.2681C32.791 53.9619 31.8386 53.2637 31.5683 52.3271C31.2979 51.3905 31.7318 50.2921 32.7744 49.2737C33.8171 48.2553 35.3831 47.4003 37.1279 46.8966C38.8728 46.393 40.6536 46.2821 42.0785 46.5882C43.5035 46.8944 44.4559 47.5926 44.7263 48.5292ZM41.8767 50.0219C41.8058 49.776 41.6439 49.5588 41.4005 49.383C41.157 49.2071 40.8367 49.0758 40.4578 48.9968C40.0789 48.9177 39.6489 48.8924 39.1923 48.9222C38.7357 48.952 38.2615 49.0365 37.7967 49.1706C36.8579 49.4416 36.0146 49.8987 35.4522 50.4416C34.8898 50.9844 34.6544 51.5684 34.7977 52.0651C34.8687 52.3111 35.0306 52.5282 35.274 52.7041C35.5175 52.88 35.8378 53.0112 36.2167 53.0903C36.5955 53.1693 37.0256 53.1947 37.4822 53.1648C37.9388 53.135 38.413 53.0506 38.8778 52.9165C39.8165 52.6455 40.6599 52.1883 41.2223 51.6455C41.7847 51.1027 42.0201 50.5187 41.8767 50.0219Z" fill="white"/>
</svg>
