<svg width="26" height="30" viewBox="0 0 26 30" fill="none" xmlns="http://www.w3.org/2000/svg">
<path d="M24.3333 8.7037L13 15M13 15L1.66662 8.7037M13 15L13 27.6667M25 20.4114V9.58863C25 9.13177 25 8.90334 24.9327 8.69961C24.8731 8.51937 24.7758 8.35393 24.6472 8.21434C24.5018 8.05656 24.3021 7.94563 23.9027 7.72376L14.036 2.24227C13.6579 2.0322 13.4688 1.92716 13.2686 1.88598C13.0914 1.84953 12.9086 1.84953 12.7314 1.88598C12.5312 1.92716 12.3421 2.0322 11.964 2.24228L2.09729 7.72376C1.69793 7.94563 1.49825 8.05656 1.35284 8.21435C1.22421 8.35393 1.12686 8.51938 1.06731 8.69961C1 8.90334 1 9.13177 1 9.58863V20.4114C1 20.8683 1 21.0967 1.06731 21.3005C1.12686 21.4807 1.22421 21.6461 1.35284 21.7857C1.49825 21.9435 1.69793 22.0544 2.0973 22.2763L11.964 27.7578C12.3421 27.9679 12.5312 28.0729 12.7314 28.1141C12.9086 28.1505 13.0914 28.1505 13.2686 28.1141C13.4688 28.0729 13.6579 27.9679 14.036 27.7578L23.9027 22.2763C24.3021 22.0544 24.5018 21.9435 24.6472 21.7857C24.7758 21.6461 24.8731 21.4807 24.9327 21.3005C25 21.0967 25 20.8683 25 20.4114Z" stroke="#AFB8C1" stroke-width="2" stroke-linecap="round" stroke-linejoin="round"/>
</svg>
