<svg width="64" height="64" viewBox="0 0 64 64" fill="none" xmlns="http://www.w3.org/2000/svg">
<path opacity="0.4" d="M56.2132 22.88V41.1199C56.2132 44.1066 54.6132 46.88 52.0265 48.4L36.1865 57.5467C33.5999 59.04 30.3998 59.04 27.7865 57.5467L11.9465 48.4C9.35978 46.9067 7.75977 44.1333 7.75977 41.1199V22.88C7.75977 19.8933 9.35978 17.1199 11.9465 15.5999L27.7865 6.45325C30.3731 4.95992 33.5732 4.95992 36.1865 6.45325L52.0265 15.5999C54.6132 17.1199 56.2132 19.8667 56.2132 22.88Z" fill="#F7D523"/>
<path d="M32 36.6667C30.9067 36.6667 30 35.7601 30 34.6667V20.6667C30 19.5734 30.9067 18.6667 32 18.6667C33.0933 18.6667 34 19.5734 34 20.6667V34.6667C34 35.7601 33.0933 36.6667 32 36.6667Z" fill="#F7D523"/>
<path d="M32.0002 46C31.6535 46 31.3068 45.92 30.9868 45.7867C30.6401 45.6533 30.3734 45.4668 30.1068 45.2268C29.8668 44.9601 29.6802 44.6667 29.5202 44.3467C29.3868 44.0267 29.3335 43.68 29.3335 43.3334C29.3335 42.64 29.6001 41.9466 30.1068 41.44C30.3734 41.2 30.6401 41.0134 30.9868 40.8801C31.9735 40.4534 33.1469 40.6933 33.8936 41.44C34.1336 41.7066 34.3201 41.9733 34.4535 42.32C34.5868 42.64 34.6668 42.9867 34.6668 43.3334C34.6668 43.68 34.5868 44.0267 34.4535 44.3467C34.3201 44.6667 34.1336 44.9601 33.8936 45.2268C33.3869 45.7334 32.7202 46 32.0002 46Z" fill="#F7D523"/>
</svg>
